<svg xmlns="http://www.w3.org/2000/svg" xmlns:xlink="http://www.w3.org/1999/xlink" aria-hidden="true" role="img" class="iconify iconify--logos" width="31.88" height="32" preserveAspectRatio="xMidYMid meet" viewBox="0 0 256 257"><defs><linearGradient id="IconifyId1813088fe1fbc01" x1="-.828%" x2="57.636%" y1="7.652%" y2="78.411%"><stop offset="0" stop-color="#41D1FF"></stop><stop offset="1" stop-color="#BD34FE"></stop></linearGradient><linearGradient id="IconifyId1813088fe1fbc02" x1="43.376%" x2="50.316%" y1="2.242%" y2="89.03%"><stop offset="0" stop-color="#FFEA83"></stop><stop offset="1" stop-color="#FF3570"></stop></linearGradient></defs><path fill="url(#IconifyId1813088fe1fbc01)" d="M255.153 37.938L134.897 252.676c-2.483 4.44-8.862 4.466-11.382.048L.854 37.358c-2.53-4.43.411-10.04 5.524-10.514L120.394 13.96c2.426-.227 4.853.749 6.404 2.658L249.407 27.59c3.33 4.09 4.029 9.88 1.746 14.348Z"></path><path fill="url(#IconifyId1813088fe1fbc02)" d="M128.07 0L28.19 19.02c-4.57.86-7.39 5.56-5.83 10l54.86 155.69c1.9 5.41 9.4 6.13 12.31 1.2l91.79-155.13c2.47-4.18.23-9.5-4.57-10.42L128.07 0z"></path></svg>
